<svg xmlns="http://www.w3.org/2000/svg" viewBox="0 0 1920 1080" fill="none" stroke="#1a1510" stroke-width="2.2" stroke-linecap="round" stroke-linejoin="round">
  <title>Act III — 우리의 시간</title>
  <desc>A woven basket on a tabletop, spilling shared objects: two teacups, folded map, ticket stubs, camera, book. Slightly top-down.</desc>

  
  <path d="M 220 830 L 1700 830" stroke-width="1.2" opacity="0.35"></path>
  <path d="M 260 860 L 1660 860" stroke-width="1" opacity="0.2"></path>

  
  <g transform="translate(960, 620)">
    
    <path d="M -280 -20&#xA;             C -295 80, -275 200, -230 230&#xA;             L 230 230&#xA;             C 275 200, 295 80, 280 -20 Z" stroke-width="2.4"></path>
    
    <ellipse cx="0" cy="-20" rx="280" ry="48" stroke-width="2.4"></ellipse>
    
    <ellipse cx="0" cy="-20" rx="260" ry="36" stroke-width="1.2" opacity="0.5"></ellipse>

    
    <g stroke-width="1.2" opacity="0.75">
      <path d="M -268 10 L -240 220"></path>
      <path d="M -228 10 L -200 222"></path>
      <path d="M -188 10 L -160 224"></path>
      <path d="M -148 10 L -120 226"></path>
      <path d="M -108 10 L -80 228"></path>
      <path d="M -68 10 L -40 228"></path>
      <path d="M -28 10 L 0 228"></path>
      <path d="M 12 10 L 40 228"></path>
      <path d="M 52 10 L 80 228"></path>
      <path d="M 92 10 L 120 226"></path>
      <path d="M 132 10 L 160 224"></path>
      <path d="M 172 10 L 200 222"></path>
      <path d="M 212 10 L 240 220"></path>
      <path d="M 252 10 L 268 205"></path>
      
      <path d="M -274 40 C -180 52, 180 52, 274 40" opacity="0.55"></path>
      <path d="M -274 95 C -180 107, 180 107, 274 95" opacity="0.55"></path>
      <path d="M -270 150 C -180 162, 180 162, 270 150" opacity="0.55"></path>
      <path d="M -262 205 C -160 216, 160 216, 262 205" opacity="0.55"></path>
    </g>

    
    <path d="M -180 -20 C -150 -130, 150 -130, 180 -20" stroke-width="2.2"></path>
    <path d="M -170 -20 C -140 -118, 140 -118, 170 -20" stroke-width="1.1" opacity="0.45"></path>
  </g>

  

  
  <g transform="translate(540, 780)">
    
    <g>
      <ellipse cx="0" cy="0" rx="52" ry="14" stroke-width="2"></ellipse>
      <path d="M -52 0 C -48 40, 48 40, 52 0" stroke-width="2"></path>
      <ellipse cx="0" cy="0" rx="42" ry="10" stroke-width="1" opacity="0.45"></ellipse>
      
      <path d="M 50 8 C 72 12, 72 32, 50 34" stroke-width="1.8"></path>
      
      <ellipse cx="0" cy="48" rx="78" ry="18" stroke-width="1.5" opacity="0.6"></ellipse>
      
      <path d="M -14 -18 q -4 -10 4 -18 q 8 -8 -2 -20" stroke-width="1.2" opacity="0.55"></path>
      <path d="M 12 -14 q 4 -10 -4 -18 q -6 -8 2 -18" stroke-width="1.2" opacity="0.55"></path>
    </g>
    
    <g transform="translate(110, -8)">
      <ellipse cx="0" cy="0" rx="44" ry="12" stroke-width="2"></ellipse>
      <path d="M -44 0 C -40 34, 40 34, 44 0" stroke-width="2"></path>
      <path d="M 42 6 C 62 10, 62 26, 42 28" stroke-width="1.6"></path>
      <ellipse cx="0" cy="40" rx="66" ry="14" stroke-width="1.4" opacity="0.55"></ellipse>
      <path d="M -10 -14 q -3 -8 3 -14" stroke-width="1.1" opacity="0.5"></path>
      <path d="M 8 -12 q 3 -8 -3 -12" stroke-width="1.1" opacity="0.5"></path>
    </g>
  </g>

  
  <g transform="translate(1310, 810) rotate(-8)">
    <path d="M 0 0 L 220 -14 L 230 96 L 14 112 Z" stroke-width="2"></path>
    
    <path d="M 60 -3 L 64 106" stroke-width="1" opacity="0.5"></path>
    <path d="M 118 -7 L 124 110" stroke-width="1" opacity="0.5"></path>
    <path d="M 176 -11 L 182 114" stroke-width="1" opacity="0.5"></path>
    <path d="M 4 54 L 228 39" stroke-width="1" opacity="0.5"></path>
    
    <g opacity="0.7">
      <circle cx="40" cy="28" r="2.5" fill="#1a1510" stroke="none"></circle>
      <circle cx="140" cy="40" r="2.5" fill="#1a1510" stroke="none"></circle>
      <circle cx="200" cy="70" r="2.5" fill="#1a1510" stroke="none"></circle>
      <path d="M 40 28 C 90 20, 120 50, 140 40 C 170 30, 190 70, 200 70" stroke-width="1.1" stroke-dasharray="3 4"></path>
    </g>
  </g>

  
  <g transform="translate(640, 880) rotate(6)">
    <path d="M 0 0 L 180 0 L 180 46 L 0 46 Z" stroke-width="1.8"></path>
    <path d="M 130 0 L 130 46" stroke-width="1" stroke-dasharray="2 3" opacity="0.7"></path>
    <path d="M 10 16 L 110 16" stroke-width="1.2" opacity="0.55"></path>
    <path d="M 10 28 L 90 28" stroke-width="1.2" opacity="0.55"></path>
  </g>
  <g transform="translate(760, 900) rotate(-12)">
    <path d="M 0 0 L 160 0 L 160 40 L 0 40 Z" stroke-width="1.8"></path>
    <path d="M 118 0 L 118 40" stroke-width="1" stroke-dasharray="2 3" opacity="0.7"></path>
    <path d="M 10 14 L 100 14" stroke-width="1.2" opacity="0.55"></path>
    <path d="M 10 24 L 80 24" stroke-width="1.2" opacity="0.55"></path>
  </g>

  
  <g transform="translate(960, 900) rotate(-3)">
    <path d="M -90 -42 L 90 -42 L 90 42 L -90 42 Z" stroke-width="2.2"></path>
    
    <path d="M -34 -42 L -34 -58 L 22 -58 L 22 -42" stroke-width="2"></path>
    
    <circle cx="0" cy="0" r="34" stroke-width="2.2"></circle>
    <circle cx="0" cy="0" r="22" stroke-width="1.5" opacity="0.6"></circle>
    <circle cx="0" cy="0" r="12" stroke-width="1.2" opacity="0.45"></circle>
    
    <circle cx="-70" cy="-52" r="4" fill="#1a1510" stroke="none"></circle>
    
    <path d="M 88 -26 l 10 -6 M -88 -26 l -10 -6" stroke-width="1.5"></path>
  </g>

  
  <g transform="translate(1150, 900) rotate(-6)">
    
    <path d="M 0 0 C 60 -14, 110 -14, 170 0 L 170 80 C 110 66, 60 66, 0 80 Z" stroke-width="2"></path>
    
    <path d="M 85 -8 L 85 74" stroke-width="1.3" opacity="0.65"></path>
    
    <g stroke-width="1" opacity="0.5">
      <path d="M 10 20 L 70 18"></path>
      <path d="M 10 34 L 74 32"></path>
      <path d="M 10 48 L 70 46"></path>
      <path d="M 100 18 L 160 20"></path>
      <path d="M 100 32 L 160 34"></path>
      <path d="M 100 46 L 158 46"></path>
    </g>
  </g>

  
  <g transform="translate(1030, 840) rotate(12)" opacity="0.85">
    <path d="M 0 0 L 110 0 L 110 60 L 0 60 Z" stroke-width="1.5"></path>
    <path d="M 0 0 L 55 34 L 110 0" stroke-width="1.2"></path>
  </g>
</svg>