<svg xmlns="http://www.w3.org/2000/svg" viewBox="0 0 1920 1080" fill="none" stroke="#1a1510" stroke-width="2.2" stroke-linecap="round" stroke-linejoin="round">
  <title>Act II — 같은 곳에서, 함께</title>
  <desc>Two converging paths meet at an open doorway. Warm light implied by empty space inside the arch.</desc>

  
  <path d="M 150 960&#xA;           C 360 930, 560 860, 720 780&#xA;           S 860 700, 920 660" stroke-dasharray="2 9" opacity="0.9"></path>

  
  <path d="M 1770 960&#xA;           C 1560 930, 1360 860, 1200 780&#xA;           S 1060 700, 1000 660" stroke-dasharray="2 9" opacity="0.9"></path>

  
  <g stroke-width="1.5" opacity="0.7">
    <path d="M 340 910 v-14 M335 903 l5 -7 M345 903 l-5 -7"></path>
    <path d="M 640 820 v-14 M635 813 l5 -7 M645 813 l-5 -7"></path>
    <path d="M 1560 910 v-14 M1555 903 l5 -7 M1565 903 l-5 -7"></path>
    <path d="M 1280 820 v-14 M1275 813 l5 -7 M1285 813 l-5 -7"></path>
    <path d="M 210 985 v-12 M205 978 l5 -6 M215 978 l-5 -6"></path>
    <path d="M 1710 985 v-12 M1705 978 l5 -6 M1715 978 l-5 -6"></path>
  </g>

  
  <path d="M 720 660 L 1200 660" stroke-width="1.8"></path>

  
  <g transform="translate(960, 660)">
    
    <path d="M -130 0 L -128 -340" stroke-width="2.8"></path>
    
    <path d="M 130 0 L 128 -340" stroke-width="2.8"></path>
    
    <path d="M -128 -340 C -120 -420, 120 -420, 128 -340" stroke-width="2.8"></path>

    
    <path d="M -108 0 L -106 -330 C -100 -395, 100 -395, 106 -330 L 108 0" stroke-width="1.2" opacity="0.5"></path>

    
    <g stroke-width="1.2" opacity="0.35">
      <circle cx="-40" cy="-170" r="1.8" fill="#1a1510" stroke="none"></circle>
      <circle cx="30" cy="-100" r="1.5" fill="#1a1510" stroke="none"></circle>
      <circle cx="-10" cy="-240" r="1.3" fill="#1a1510" stroke="none"></circle>
      <circle cx="55" cy="-280" r="1.2" fill="#1a1510" stroke="none"></circle>
      <circle cx="-70" cy="-80" r="1.3" fill="#1a1510" stroke="none"></circle>
      <circle cx="70" cy="-200" r="1.5" fill="#1a1510" stroke="none"></circle>
    </g>

    
    <path d="M -6 -412 l 12 0" stroke-width="1.6"></path>
  </g>

  
  <path d="M 300 660 L 720 660 M 1200 660 L 1620 660" stroke-width="1.2" opacity="0.4"></path>

  
  <g stroke-width="1.3" opacity="0.55">
    <path d="M 640 240 q 8 -6 16 0 q 8 -6 16 0"></path>
    <path d="M 1250 220 q 7 -5 14 0 q 7 -5 14 0"></path>
    <path d="M 960 180 q 6 -5 12 0"></path>
  </g>
</svg>