<svg xmlns="http://www.w3.org/2000/svg" viewBox="0 0 1920 1080" fill="none" stroke="#1a1510" stroke-width="2.2" stroke-linecap="round" stroke-linejoin="round">
  <title>Act I — 각자의 자리에서</title>
  <desc>Two meandering garden paths, disconnected, each with a small walking figure seen from above. Generous whitespace.</desc>

  
  <g opacity="0.95">
    <path d="M 260 160&#xA;             C 240 240, 320 300, 300 380&#xA;             S 220 500, 260 590&#xA;             S 360 700, 330 810&#xA;             S 270 920, 300 1000" stroke-dasharray="2 9"></path>
    
    <g stroke-width="1.4" opacity="0.55">
      <path d="M250 250 l-14 -4"></path>
      <path d="M290 350 l14 3"></path>
      <path d="M245 500 l-14 -2"></path>
      <path d="M305 620 l14 4"></path>
      <path d="M270 780 l-13 -3"></path>
      <path d="M320 920 l14 3"></path>
    </g>
    
    <g stroke-width="1.6" opacity="0.8">
      <path d="M205 310 v-14 M200 303 l5 -7 M210 303 l-5 -7"></path>
      <path d="M355 440 v-14 M350 432 l5 -7 M360 432 l-5 -7"></path>
      <path d="M210 680 v-14 M205 672 l5 -7 M215 672 l-5 -7"></path>
      <path d="M370 860 v-14 M365 852 l5 -7 M375 852 l-5 -7"></path>
      <path d="M380 210 v-12 M375 203 l5 -6 M385 203 l-5 -6"></path>
    </g>
  </g>

  
  <g transform="translate(291, 455)">
    <ellipse cx="0" cy="0" rx="11" ry="14" fill="#1a1510" stroke="none"></ellipse>
    
    <path d="M -3 16 q 3 6 6 0" stroke-width="1.4"></path>
  </g>

  
  <g opacity="0.95">
    <path d="M 1660 130&#xA;             C 1700 220, 1600 290, 1650 370&#xA;             S 1750 470, 1680 570&#xA;             S 1580 680, 1650 770&#xA;             S 1720 880, 1670 990" stroke-dasharray="2 9"></path>
    <g stroke-width="1.4" opacity="0.55">
      <path d="M1686 230 l13 -3"></path>
      <path d="M1638 320 l-14 -4"></path>
      <path d="M1712 440 l14 2"></path>
      <path d="M1628 580 l-14 -2"></path>
      <path d="M1700 720 l13 4"></path>
      <path d="M1640 880 l-14 -3"></path>
    </g>
    <g stroke-width="1.6" opacity="0.8">
      <path d="M1745 280 v-14 M1740 272 l5 -7 M1750 272 l-5 -7"></path>
      <path d="M1590 420 v-14 M1585 412 l5 -7 M1595 412 l-5 -7"></path>
      <path d="M1735 640 v-14 M1730 632 l5 -7 M1740 632 l-5 -7"></path>
      <path d="M1585 820 v-14 M1580 812 l5 -7 M1590 812 l-5 -7"></path>
      <path d="M1560 180 v-12 M1555 173 l5 -6 M1565 173 l-5 -6"></path>
    </g>
  </g>

  
  <g transform="translate(1667, 680)">
    <ellipse cx="0" cy="0" rx="11" ry="14" fill="#1a1510" stroke="none"></ellipse>
    <path d="M -3 16 q 3 6 6 0" stroke-width="1.4"></path>
  </g>

  
  <g stroke-width="1.3" opacity="0.5">
    <path d="M 930 280 q 8 -6 16 0 q 8 -6 16 0"></path>
    <path d="M 1020 320 q 6 -5 12 0 q 6 -5 12 0"></path>
    <path d="M 880 360 q 6 -4 10 0"></path>
  </g>
</svg>