<svg xmlns="http://www.w3.org/2000/svg" viewBox="0 0 1920 1080" fill="none" stroke="#1a1510" stroke-width="2.2" stroke-linecap="round" stroke-linejoin="round">
  <title>Act V — 그리고, 오늘</title>
  <desc>A single wildflower just bloomed, seen from slight side angle. Single stem, few leaves. Delicate, not ornate. Composition shifted right to keep bottom-left caption zone clear.</desc>

  
  <path d="M 1260 880&#xA;           C 1220 780, 1120 700, 1060 580&#xA;           S 1020 360, 1030 240" stroke-width="2.4"></path>

  
  <g stroke-width="1.2" opacity="0.55">
    <path d="M 1115 720 q -5 -3 -9 1"></path>
    <path d="M 1045 520 q 5 0 8 -3"></path>
  </g>

  
  <g transform="translate(1130, 740)">
    <path d="M 0 0&#xA;             C 18 -8, 90 -20, 140 -8&#xA;             C 90 14, 30 18, 0 8 Z" stroke-width="2"></path>
    <path d="M 0 2 C 50 -2, 100 -4, 130 -4" stroke-width="1" opacity="0.55"></path>
  </g>

  <g transform="translate(1050, 540)">
    <path d="M 0 0&#xA;             C 16 -10, 70 -22, 118 -12&#xA;             C 78 10, 32 14, 0 6 Z" stroke-width="2"></path>
    <path d="M 0 -1 C 40 -8, 80 -10, 110 -10" stroke-width="1" opacity="0.55"></path>
  </g>

  
  <g transform="translate(1030, 240)">
    
    <path d="M -4 -20 C -40 -80, -70 -100, -80 -140 C -40 -120, -10 -80, -4 -40 Z" stroke-width="2" opacity="0.85"></path>
    
    <path d="M -14 -10 C -80 -40, -120 -70, -130 -100 C -110 -60, -80 -30, -24 -6 Z" stroke-width="2"></path>
    
    <path d="M 14 -10 C 80 -40, 120 -70, 130 -100 C 110 -60, 80 -30, 24 -6 Z" stroke-width="2"></path>
    
    <path d="M -10 0 C -60 10, -90 28, -110 40 C -70 34, -30 22, -12 14 Z" stroke-width="2"></path>
    
    <path d="M 10 0 C 60 10, 90 28, 110 40 C 70 34, 30 22, 12 14 Z" stroke-width="2"></path>

    
    <ellipse cx="0" cy="-2" rx="10" ry="8" stroke-width="1.8"></ellipse>
    <g fill="#1a1510" stroke="none" opacity="0.85">
      <circle cx="-3" cy="-6" r="1.3"></circle>
      <circle cx="3" cy="-4" r="1.3"></circle>
      <circle cx="0" cy="-1" r="1.1"></circle>
      <circle cx="-4" cy="1" r="1"></circle>
      <circle cx="4" cy="0" r="1"></circle>
    </g>

    
    <g transform="translate(60, -90)">
      <path d="M 0 0 C -6 -16, 6 -22, 10 -10 C 6 2, -4 6, 0 0 Z" stroke-width="1.6" opacity="0.85"></path>
      <path d="M 10 -10 C 20 -18, 24 -14, 16 -6" stroke-width="1.4" opacity="0.7"></path>
      <path d="M -8 4 C -20 18, -38 28, -60 56" stroke-width="1.6" opacity="0.7"></path>
    </g>
  </g>

  
  <path d="M 1180 905 L 1400 905" stroke-width="1" opacity="0.2"></path>
</svg>